<mxfile host="app.diagrams.net" modified="2023-04-24T07:28:04.659Z" agent="Mozilla/5.0 (Macintosh; Intel Mac OS X 10_15_7) AppleWebKit/605.1.15 (KHTML, like Gecko) Version/16.2 Safari/605.1.15" etag="34LJFI6ieZKzUGi46Inv" version="21.2.1" type="github">
  <diagram id="RBb7oxttxBgPXwsNeLO2" name="Page-1">
    <mxGraphModel dx="1187" dy="739" grid="1" gridSize="10" guides="1" tooltips="1" connect="1" arrows="1" fold="1" page="1" pageScale="1" pageWidth="850" pageHeight="1100" math="0" shadow="0">
      <root>
        <mxCell id="0" />
        <mxCell id="1" parent="0" />
        <mxCell id="3_Mve7OBSd4JhuLEOyqr-21" value="" style="rounded=0;whiteSpace=wrap;html=1;fillColor=#f5f5f5;strokeColor=#666666;fontColor=#333333;" parent="1" vertex="1">
          <mxGeometry x="564" y="130" width="49" height="180" as="geometry" />
        </mxCell>
        <mxCell id="3_Mve7OBSd4JhuLEOyqr-20" value="" style="rounded=0;whiteSpace=wrap;html=1;fillColor=#f5f5f5;strokeColor=#666666;fontColor=#333333;" parent="1" vertex="1">
          <mxGeometry x="190" y="130" width="50" height="180" as="geometry" />
        </mxCell>
        <mxCell id="3_Mve7OBSd4JhuLEOyqr-9" value="" style="rounded=0;whiteSpace=wrap;html=1;fillColor=#f5f5f5;strokeColor=#666666;fontColor=#333333;" parent="1" vertex="1">
          <mxGeometry x="242" y="130" width="318" height="180" as="geometry" />
        </mxCell>
        <mxCell id="Kc7W_aGzd4kmXyvqEKLv-1" value="" style="rounded=1;whiteSpace=wrap;html=1;rotation=90;fillColor=#dae8fc;strokeColor=#6c8ebf;" parent="1" vertex="1">
          <mxGeometry x="155" y="200" width="120" height="30" as="geometry" />
        </mxCell>
        <mxCell id="Kc7W_aGzd4kmXyvqEKLv-2" value="x(t&lt;sub&gt;1&lt;/sub&gt;)" style="text;html=1;strokeColor=none;fillColor=none;align=center;verticalAlign=middle;whiteSpace=wrap;rounded=0;fontStyle=1" parent="1" vertex="1">
          <mxGeometry x="195" y="130" width="40" height="20" as="geometry" />
        </mxCell>
        <mxCell id="Kc7W_aGzd4kmXyvqEKLv-3" value="" style="rounded=1;whiteSpace=wrap;html=1;rotation=90;fillColor=#d5e8d4;strokeColor=#82b366;" parent="1" vertex="1">
          <mxGeometry x="277.07" y="200" width="120" height="30" as="geometry" />
        </mxCell>
        <mxCell id="Kc7W_aGzd4kmXyvqEKLv-4" value="z(t&lt;sub&gt;1&lt;/sub&gt;)" style="text;html=1;strokeColor=none;fillColor=none;align=center;verticalAlign=middle;whiteSpace=wrap;rounded=0;fontStyle=1" parent="1" vertex="1">
          <mxGeometry x="318" y="130" width="40" height="20" as="geometry" />
        </mxCell>
        <mxCell id="Kc7W_aGzd4kmXyvqEKLv-10" value="z(t&lt;sub&gt;0&lt;/sub&gt;)" style="text;html=1;strokeColor=none;fillColor=none;align=center;verticalAlign=middle;whiteSpace=wrap;rounded=0;fontStyle=1" parent="1" vertex="1">
          <mxGeometry x="281.07" y="168" width="40" height="20" as="geometry" />
        </mxCell>
        <mxCell id="Kc7W_aGzd4kmXyvqEKLv-12" value="" style="rounded=1;whiteSpace=wrap;html=1;rotation=90;fillColor=#d5e8d4;strokeColor=#82b366;" parent="1" vertex="1">
          <mxGeometry x="420" y="200" width="120" height="30" as="geometry" />
        </mxCell>
        <mxCell id="Kc7W_aGzd4kmXyvqEKLv-15" value="z(t&lt;sub&gt;2&lt;/sub&gt;)" style="text;html=1;strokeColor=none;fillColor=none;align=center;verticalAlign=middle;whiteSpace=wrap;rounded=0;fontStyle=1" parent="1" vertex="1">
          <mxGeometry x="460" y="130" width="40" height="20" as="geometry" />
        </mxCell>
        <mxCell id="3_Mve7OBSd4JhuLEOyqr-1" value="" style="endArrow=classic;html=1;exitX=0.5;exitY=0;exitDx=0;exitDy=0;entryX=0.5;entryY=0;entryDx=0;entryDy=0;" parent="1" source="Kc7W_aGzd4kmXyvqEKLv-12" target="3_Mve7OBSd4JhuLEOyqr-2" edge="1">
          <mxGeometry width="50" height="50" relative="1" as="geometry">
            <mxPoint x="546" y="220" as="sourcePoint" />
            <mxPoint x="546" y="215" as="targetPoint" />
          </mxGeometry>
        </mxCell>
        <mxCell id="3_Mve7OBSd4JhuLEOyqr-2" value="" style="rounded=1;whiteSpace=wrap;html=1;rotation=-90;fillColor=#d5e8d4;strokeColor=#82b366;" parent="1" vertex="1">
          <mxGeometry x="479" y="200" width="120" height="30" as="geometry" />
        </mxCell>
        <mxCell id="3_Mve7OBSd4JhuLEOyqr-6" value="" style="endArrow=classic;html=1;exitX=0.5;exitY=1;exitDx=0;exitDy=0;entryX=0.5;entryY=1;entryDx=0;entryDy=0;" parent="1" source="3_Mve7OBSd4JhuLEOyqr-2" target="3_Mve7OBSd4JhuLEOyqr-10" edge="1">
          <mxGeometry width="50" height="50" relative="1" as="geometry">
            <mxPoint x="542" y="214.83" as="sourcePoint" />
            <mxPoint x="561.9999999999999" y="215" as="targetPoint" />
          </mxGeometry>
        </mxCell>
        <mxCell id="3_Mve7OBSd4JhuLEOyqr-10" value="" style="rounded=1;whiteSpace=wrap;html=1;rotation=90;" parent="1" vertex="1">
          <mxGeometry x="560" y="200" width="60" height="30" as="geometry" />
        </mxCell>
        <mxCell id="3_Mve7OBSd4JhuLEOyqr-12" value="" style="ellipse;whiteSpace=wrap;html=1;aspect=fixed;fillColor=#f8cecc;strokeColor=#b85450;" parent="1" vertex="1">
          <mxGeometry x="578" y="189" width="24" height="24" as="geometry" />
        </mxCell>
        <mxCell id="3_Mve7OBSd4JhuLEOyqr-13" value="" style="ellipse;whiteSpace=wrap;html=1;aspect=fixed;fillColor=#f8cecc;strokeColor=#b85450;" parent="1" vertex="1">
          <mxGeometry x="578" y="217" width="24" height="24" as="geometry" />
        </mxCell>
        <mxCell id="3_Mve7OBSd4JhuLEOyqr-15" value="&lt;i&gt;Input layer&lt;/i&gt;" style="text;html=1;strokeColor=none;fillColor=none;align=center;verticalAlign=middle;whiteSpace=wrap;rounded=0;" parent="1" vertex="1">
          <mxGeometry x="190" y="100" width="50" height="20" as="geometry" />
        </mxCell>
        <mxCell id="3_Mve7OBSd4JhuLEOyqr-16" value="&lt;i&gt;Hidden layers&lt;/i&gt;" style="text;html=1;strokeColor=none;fillColor=none;align=center;verticalAlign=middle;whiteSpace=wrap;rounded=0;" parent="1" vertex="1">
          <mxGeometry x="356" y="100" width="90" height="20" as="geometry" />
        </mxCell>
        <mxCell id="3_Mve7OBSd4JhuLEOyqr-17" value="&lt;i&gt;Output layer&lt;/i&gt;" style="text;html=1;strokeColor=none;fillColor=none;align=center;verticalAlign=middle;whiteSpace=wrap;rounded=0;" parent="1" vertex="1">
          <mxGeometry x="558.5" y="100" width="60" height="20" as="geometry" />
        </mxCell>
        <mxCell id="3_Mve7OBSd4JhuLEOyqr-18" value="&lt;font style=&quot;font-size: 9px&quot;&gt;μ(t&lt;sub&gt;2-&lt;/sub&gt;)&lt;/font&gt;" style="text;html=1;strokeColor=none;fillColor=none;align=center;verticalAlign=middle;whiteSpace=wrap;rounded=0;fontStyle=1" parent="1" vertex="1">
          <mxGeometry x="570" y="188" width="40" height="20" as="geometry" />
        </mxCell>
        <mxCell id="3_Mve7OBSd4JhuLEOyqr-19" value="&lt;font style=&quot;font-size: 9px&quot;&gt;&lt;span&gt;σ(&lt;/span&gt;t&lt;sub&gt;2-&lt;/sub&gt;)&lt;/font&gt;" style="text;html=1;strokeColor=none;fillColor=none;align=center;verticalAlign=middle;whiteSpace=wrap;rounded=0;fontStyle=1" parent="1" vertex="1">
          <mxGeometry x="579" y="223" width="23.5" height="7" as="geometry" />
        </mxCell>
        <mxCell id="3_Mve7OBSd4JhuLEOyqr-22" value="y(t&lt;sub&gt;2&lt;/sub&gt;)" style="text;html=1;strokeColor=none;fillColor=none;align=center;verticalAlign=middle;whiteSpace=wrap;rounded=0;fontStyle=1" parent="1" vertex="1">
          <mxGeometry x="570.75" y="130" width="40" height="20" as="geometry" />
        </mxCell>
        <mxCell id="3_Mve7OBSd4JhuLEOyqr-23" value="&lt;div style=&quot;font-size: 10px;&quot;&gt;Recurrent layer&lt;br&gt;&lt;/div&gt;" style="text;html=1;strokeColor=none;fillColor=none;align=center;verticalAlign=middle;whiteSpace=wrap;rounded=0;rotation=0;fontSize=10;" parent="1" vertex="1">
          <mxGeometry x="307.54" y="275" width="60.93" height="30" as="geometry" />
        </mxCell>
        <mxCell id="3_Mve7OBSd4JhuLEOyqr-24" value="&lt;div style=&quot;font-size: 10px;&quot;&gt;Dense layer(s)&lt;br style=&quot;font-size: 10px;&quot;&gt;&lt;/div&gt;" style="text;html=1;strokeColor=none;fillColor=none;align=center;verticalAlign=middle;whiteSpace=wrap;rounded=0;rotation=0;fontSize=10;" parent="1" vertex="1">
          <mxGeometry x="470" y="275" width="82.25" height="30" as="geometry" />
        </mxCell>
        <mxCell id="X3Ae3o2BVPW1uyJt0vy1-1" value="" style="rounded=1;whiteSpace=wrap;html=1;rotation=90;fillColor=#d5e8d4;strokeColor=#82b366;" parent="1" vertex="1">
          <mxGeometry x="206.94" y="200" width="120" height="30" as="geometry" />
        </mxCell>
        <mxCell id="X3Ae3o2BVPW1uyJt0vy1-2" value="" style="endArrow=classic;html=1;entryX=0.5;entryY=1;entryDx=0;entryDy=0;exitX=0.5;exitY=0;exitDx=0;exitDy=0;" parent="1" source="X3Ae3o2BVPW1uyJt0vy1-1" target="Kc7W_aGzd4kmXyvqEKLv-3" edge="1">
          <mxGeometry width="50" height="50" relative="1" as="geometry">
            <mxPoint x="300" y="215" as="sourcePoint" />
            <mxPoint x="330" y="212" as="targetPoint" />
          </mxGeometry>
        </mxCell>
        <mxCell id="X3Ae3o2BVPW1uyJt0vy1-3" value="" style="endArrow=classic;html=1;exitX=0.5;exitY=0;exitDx=0;exitDy=0;" parent="1" edge="1">
          <mxGeometry width="50" height="50" relative="1" as="geometry">
            <mxPoint x="230" y="213" as="sourcePoint" />
            <mxPoint x="252" y="213" as="targetPoint" />
          </mxGeometry>
        </mxCell>
        <mxCell id="X3Ae3o2BVPW1uyJt0vy1-5" value="&lt;div style=&quot;font-size: 10px;&quot;&gt;Dense layer(s)&lt;br style=&quot;font-size: 10px;&quot;&gt;&lt;/div&gt;" style="text;html=1;strokeColor=none;fillColor=none;align=center;verticalAlign=middle;whiteSpace=wrap;rounded=0;rotation=0;fontSize=10;" parent="1" vertex="1">
          <mxGeometry x="233.88" y="275" width="66.12" height="30" as="geometry" />
        </mxCell>
        <mxCell id="X3Ae3o2BVPW1uyJt0vy1-6" value="" style="endArrow=none;dashed=1;html=1;fontSize=10;exitX=0.5;exitY=1;exitDx=0;exitDy=0;entryX=0.5;entryY=1;entryDx=0;entryDy=0;" parent="1" source="Kc7W_aGzd4kmXyvqEKLv-10" target="Kc7W_aGzd4kmXyvqEKLv-3" edge="1">
          <mxGeometry width="50" height="50" relative="1" as="geometry">
            <mxPoint x="320" y="210" as="sourcePoint" />
            <mxPoint x="370" y="160" as="targetPoint" />
            <Array as="points">
              <mxPoint x="301" y="215" />
            </Array>
          </mxGeometry>
        </mxCell>
        <mxCell id="kR0L0_1GJCAeWCNF6Ypc-1" value="" style="endArrow=classic;html=1;rounded=1;" edge="1" parent="1">
          <mxGeometry width="50" height="50" relative="1" as="geometry">
            <mxPoint x="375.24" y="185" as="sourcePoint" />
            <mxPoint x="447.87" y="185" as="targetPoint" />
            <Array as="points">
              <mxPoint x="387.87" y="175" />
              <mxPoint x="407.87" y="195" />
              <mxPoint x="427.87" y="175" />
              <mxPoint x="437.87" y="185" />
            </Array>
          </mxGeometry>
        </mxCell>
        <mxCell id="kR0L0_1GJCAeWCNF6Ypc-2" value="" style="endArrow=classic;html=1;rounded=1;" edge="1" parent="1">
          <mxGeometry width="50" height="50" relative="1" as="geometry">
            <mxPoint x="376.87" y="205" as="sourcePoint" />
            <mxPoint x="449.5" y="205" as="targetPoint" />
            <Array as="points">
              <mxPoint x="389.5" y="195" />
              <mxPoint x="409.5" y="215" />
              <mxPoint x="429.5" y="195" />
              <mxPoint x="439.5" y="205" />
            </Array>
          </mxGeometry>
        </mxCell>
        <mxCell id="kR0L0_1GJCAeWCNF6Ypc-3" value="" style="endArrow=classic;html=1;rounded=1;" edge="1" parent="1">
          <mxGeometry width="50" height="50" relative="1" as="geometry">
            <mxPoint x="376.87" y="225" as="sourcePoint" />
            <mxPoint x="449.5" y="225" as="targetPoint" />
            <Array as="points">
              <mxPoint x="389.5" y="215" />
              <mxPoint x="409.5" y="235" />
              <mxPoint x="429.5" y="215" />
              <mxPoint x="439.5" y="225" />
            </Array>
          </mxGeometry>
        </mxCell>
        <mxCell id="kR0L0_1GJCAeWCNF6Ypc-4" value="" style="endArrow=classic;html=1;rounded=1;" edge="1" parent="1">
          <mxGeometry width="50" height="50" relative="1" as="geometry">
            <mxPoint x="376.87" y="245" as="sourcePoint" />
            <mxPoint x="449.5" y="245" as="targetPoint" />
            <Array as="points">
              <mxPoint x="389.5" y="235" />
              <mxPoint x="409.5" y="255" />
              <mxPoint x="429.5" y="235" />
              <mxPoint x="439.5" y="245" />
            </Array>
          </mxGeometry>
        </mxCell>
        <mxCell id="kR0L0_1GJCAeWCNF6Ypc-5" value="Continuous time process&amp;nbsp;" style="text;html=1;strokeColor=none;fillColor=none;align=center;verticalAlign=middle;whiteSpace=wrap;rounded=0;fontSize=10;" vertex="1" parent="1">
          <mxGeometry x="362" y="275" width="108" height="30" as="geometry" />
        </mxCell>
      </root>
    </mxGraphModel>
  </diagram>
</mxfile>
